<svg xmlns="http://www.w3.org/2000/svg" width="21.887" height="21.883" viewBox="0 0 21.887 21.883"><path d="M10.942-14.99a5.6,5.6,0,0,0-5.61,5.61,5.6,5.6,0,0,0,5.61,5.61,5.6,5.6,0,0,0,5.61-5.61A5.6,5.6,0,0,0,10.942-14.99Zm0,9.258A3.654,3.654,0,0,1,7.295-9.38a3.651,3.651,0,0,1,3.647-3.647A3.651,3.651,0,0,1,14.59-9.38,3.654,3.654,0,0,1,10.942-5.732Zm7.148-9.487a1.309,1.309,0,0,0-1.309-1.309,1.309,1.309,0,0,0-1.309,1.309,1.306,1.306,0,0,0,1.309,1.309A1.306,1.306,0,0,0,18.091-15.22Zm3.716,1.328a6.476,6.476,0,0,0-1.768-4.585,6.519,6.519,0,0,0-4.585-1.768c-1.807-.1-7.222-.1-9.028,0a6.509,6.509,0,0,0-4.585,1.763A6.5,6.5,0,0,0,.073-13.9c-.1,1.807-.1,7.222,0,9.028A6.476,6.476,0,0,0,1.841-.283,6.527,6.527,0,0,0,6.426,1.484c1.807.1,7.222.1,9.028,0A6.476,6.476,0,0,0,20.039-.283a6.519,6.519,0,0,0,1.768-4.585C21.909-6.675,21.909-12.085,21.807-13.892ZM19.473-2.93a3.693,3.693,0,0,1-2.08,2.08c-1.44.571-4.858.439-6.45.439S5.928-.283,4.492-.85a3.693,3.693,0,0,1-2.08-2.08c-.571-1.44-.439-4.858-.439-6.45s-.127-5.015.439-6.45a3.693,3.693,0,0,1,2.08-2.08c1.44-.571,4.858-.439,6.45-.439s5.015-.127,6.45.439a3.693,3.693,0,0,1,2.08,2.08c.571,1.44.439,4.858.439,6.45S20.044-4.365,19.473-2.93Z" transform="translate(0.004 20.321)"/></svg>