<svg xmlns="http://www.w3.org/2000/svg" width="222.296" height="90" viewBox="0 0 222.296 90"><g transform="translate(-156.096 -287.718)"><g transform="translate(249.303 306.625)"><g transform="translate(9.502)"><path d="M351.39,362.7V324.773h20.831v2.8h-16.4v15.113h14.121v2.684H355.824V362.7Z" transform="translate(-351.39 -324.248)"/><path d="M387.769,362.7l12.779-37.928h5.193L418.286,362.7h-4.61l-3.967-11.67h-14.88l-3.967,11.67Zm7.877-14.062h13.3l-6.594-20.481Z" transform="translate(-367.171 -324.248)"/><path d="M450.166,357.776q-4.376-5.1-4.377-14.091a25.5,25.5,0,0,1,2.013-10.5,15.659,15.659,0,0,1,5.718-6.914,15.382,15.382,0,0,1,8.607-2.422,18.911,18.911,0,0,1,5.164.7,24.253,24.253,0,0,1,4.23,1.575,14.636,14.636,0,0,1,1.751.934l-.525,2.8a13.773,13.773,0,0,0-1.692-.875,28.977,28.977,0,0,0-3.938-1.517,15.13,15.13,0,0,0-4.522-.7,10.459,10.459,0,0,0-8.869,4.289q-3.21,4.289-3.209,12.516,0,8.112,3.267,12.254a12.168,12.168,0,0,0,14.588,2.859,14.894,14.894,0,0,0,3.705-2.743,6.731,6.731,0,0,0,1.371-1.692l1.633,1.867a7.592,7.592,0,0,1-1.517,2.013,15.5,15.5,0,0,1-4.347,3.238,14.217,14.217,0,0,1-6.8,1.517Q454.542,362.882,450.166,357.776Z" transform="translate(-392.341 -323.846)"/><path d="M509.273,362.7V324.773H529.7v2.8H513.707v14.587h14.646v2.684H513.707V359.9h17.271v2.8Z" transform="translate(-419.881 -324.248)"/></g><g transform="translate(0 44.417)"><path d="M334.607,402.454h1.563a2.19,2.19,0,0,1,1.559.521,2.016,2.016,0,0,1,.557,1.543,2.34,2.34,0,0,1-.3,1.248,1.756,1.756,0,0,1-.777.7,2.434,2.434,0,0,1-1.017.216h-.822v2.285h-.762Zm1.473,3.809q1.4,0,1.4-1.714a1.838,1.838,0,0,0-.361-1.248,1.31,1.31,0,0,0-1.032-.406h-.722v3.368Z" transform="translate(-334.607 -402.364)"/><path d="M350.467,408.969v-6.515h.762v6.033h2.9v.481Z" transform="translate(-341.487 -402.364)"/><path d="M364.629,408.969l2.195-6.515h.892l2.155,6.515h-.792l-.682-2h-2.556l-.682,2Zm1.353-2.416h2.286l-1.133-3.518Z" transform="translate(-347.631 -402.364)"/><path d="M382.977,408.81a2,2,0,0,1-.636-.406q-.205-.216-.206-.255l.251-.392a.906.906,0,0,0,.19.226,1.83,1.83,0,0,0,.557.361,2.178,2.178,0,0,0,.9.165,1.326,1.326,0,0,0,.992-.366,1.24,1.24,0,0,0,.361-.906,1.037,1.037,0,0,0-.18-.622,1.394,1.394,0,0,0-.447-.4,7.159,7.159,0,0,0-.717-.341,6.279,6.279,0,0,1-.841-.4,1.653,1.653,0,0,1-.541-.526,1.531,1.531,0,0,1-.221-.857,1.7,1.7,0,0,1,.521-1.308,1.96,1.96,0,0,1,1.393-.486,2.28,2.28,0,0,1,.777.125,2.472,2.472,0,0,1,.556.271.944.944,0,0,1,.211.165l-.1.442a.83.83,0,0,0-.2-.161,2.44,2.44,0,0,0-.511-.26,1.912,1.912,0,0,0-.692-.12,1.212,1.212,0,0,0-.882.311,1.117,1.117,0,0,0-.321.842,1.035,1.035,0,0,0,.176.616,1.358,1.358,0,0,0,.44.4,6.482,6.482,0,0,0,.707.331,6.459,6.459,0,0,1,.853.416,1.7,1.7,0,0,1,.546.546,1.644,1.644,0,0,1,.225.9,1.862,1.862,0,0,1-.255.977,1.757,1.757,0,0,1-.727.666,2.364,2.364,0,0,1-1.092.241A2.687,2.687,0,0,1,382.977,408.81Z" transform="translate(-355.225 -402.295)"/><path d="M399.089,408.969v-6.033h-1.855v-.481h4.481v.481h-1.864v6.033Z" transform="translate(-361.775 -402.364)"/><path d="M414.016,408.969v-6.515h.762v6.515Z" transform="translate(-369.055 -402.364)"/><path d="M425.725,408.123a3.6,3.6,0,0,1-.752-2.421,4.377,4.377,0,0,1,.346-1.8,2.7,2.7,0,0,1,.982-1.188,2.642,2.642,0,0,1,1.479-.416,3.238,3.238,0,0,1,.887.12,4.208,4.208,0,0,1,.726.27,2.533,2.533,0,0,1,.3.161l-.091.481a2.411,2.411,0,0,0-.29-.149,4.9,4.9,0,0,0-.677-.26,2.577,2.577,0,0,0-.777-.121,1.8,1.8,0,0,0-1.523.736,3.551,3.551,0,0,0-.552,2.15,3.347,3.347,0,0,0,.562,2.105,2.089,2.089,0,0,0,2.505.491,2.542,2.542,0,0,0,.636-.471,1.141,1.141,0,0,0,.236-.29l.281.32a1.3,1.3,0,0,1-.26.345,2.66,2.66,0,0,1-.747.557,2.445,2.445,0,0,1-1.167.26A2.622,2.622,0,0,1,425.725,408.123Z" transform="translate(-373.809 -402.295)"/><path d="M454.12,408.81a1.993,1.993,0,0,1-.636-.406q-.205-.216-.206-.255l.251-.392a.891.891,0,0,0,.19.226,1.818,1.818,0,0,0,.556.361,2.18,2.18,0,0,0,.9.165,1.328,1.328,0,0,0,.993-.366,1.24,1.24,0,0,0,.361-.906,1.034,1.034,0,0,0-.181-.622,1.378,1.378,0,0,0-.446-.4,7.2,7.2,0,0,0-.716-.341,6.265,6.265,0,0,1-.842-.4,1.658,1.658,0,0,1-.541-.526,1.535,1.535,0,0,1-.22-.857,1.7,1.7,0,0,1,.521-1.308,1.959,1.959,0,0,1,1.393-.486,2.279,2.279,0,0,1,.777.125,2.448,2.448,0,0,1,.556.271.927.927,0,0,1,.211.165l-.1.442a.846.846,0,0,0-.2-.161,2.431,2.431,0,0,0-.511-.26,1.909,1.909,0,0,0-.691-.12,1.213,1.213,0,0,0-.882.311,1.117,1.117,0,0,0-.32.842,1.031,1.031,0,0,0,.175.616,1.351,1.351,0,0,0,.442.4,6.386,6.386,0,0,0,.707.331,6.434,6.434,0,0,1,.852.416,1.7,1.7,0,0,1,.546.546,1.639,1.639,0,0,1,.226.9,1.868,1.868,0,0,1-.255.977,1.756,1.756,0,0,1-.726.666A2.37,2.37,0,0,1,455.2,409,2.687,2.687,0,0,1,454.12,408.81Z" transform="translate(-386.087 -402.295)"/><path d="M470.351,408.467a2.245,2.245,0,0,1-.576-1.623v-4.39h.752v4.219a2.145,2.145,0,0,0,.4,1.4,1.432,1.432,0,0,0,1.173.486,1.47,1.47,0,0,0,1.208-.5,2.132,2.132,0,0,0,.406-1.388v-4.219h.551v4.39a2.282,2.282,0,0,1-.562,1.623,2.635,2.635,0,0,1-3.352,0Z" transform="translate(-393.244 -402.364)"/><path d="M487.973,402.454h1.573a2.21,2.21,0,0,1,1.553.516,1.91,1.91,0,0,1,.561,1.479,2.214,2.214,0,0,1-.331,1.263,1.824,1.824,0,0,1-.872.7l1.634,2.556h-.872l-1.494-2.416h-.992v2.416h-.762Zm1.573,3.648a1.244,1.244,0,0,0,.982-.371,1.874,1.874,0,0,0,.331-1.253q0-1.583-1.4-1.584h-.722V406.1Z" transform="translate(-401.138 -402.364)"/><path d="M504.481,408.118a3.844,3.844,0,0,1-.7-2.456,3.689,3.689,0,0,1,.762-2.481,2.685,2.685,0,0,1,2.155-.887,3.238,3.238,0,0,1,.887.12,4.208,4.208,0,0,1,.726.27,2.54,2.54,0,0,1,.3.161l-.091.481a2.4,2.4,0,0,0-.29-.149,4.836,4.836,0,0,0-.677-.26,2.577,2.577,0,0,0-.777-.121,1.927,1.927,0,0,0-1.649.716,4.574,4.574,0,0,0-.015,4.27,1.694,1.694,0,0,0,1.453.717,1.446,1.446,0,0,0,1.093-.361,1.758,1.758,0,0,0,.441-.722v-1.473h-1.333v-.431h1.974V408.9h-.371l-.19-.712a1.873,1.873,0,0,1-.662.582,2.2,2.2,0,0,1-1.062.23A2.379,2.379,0,0,1,504.481,408.118Z" transform="translate(-407.995 -402.295)"/><path d="M522.649,408.969v-6.515h3.508v.481h-2.746v2.5h2.516v.461h-2.516v2.586h2.966v.481Z" transform="translate(-416.181 -402.364)"/><path d="M538.705,402.454h1.573a2.212,2.212,0,0,1,1.554.516,1.91,1.91,0,0,1,.561,1.479,2.218,2.218,0,0,1-.331,1.263,1.828,1.828,0,0,1-.872.7l1.634,2.556h-.872l-1.493-2.416h-.992v2.416h-.762Zm1.573,3.648a1.246,1.246,0,0,0,.982-.371,1.878,1.878,0,0,0,.331-1.253q0-1.583-1.4-1.584h-.721V406.1Z" transform="translate(-423.146 -402.364)"/><path d="M555.852,408.969v-2.7l-2.155-3.818h.852l1.794,3.207,1.784-3.207h.612l-2.125,3.768v2.747Z" transform="translate(-429.65 -402.364)"/></g></g><path d="M247.35,367.874H162.18c1.218-3.121,4.462-8.135,12.969-14.1a63.925,63.925,0,0,0,15.4,11.529,11.652,11.652,0,0,0,4.852,1.3,5.594,5.594,0,0,0,1.857-.294A4.482,4.482,0,0,0,200,363.575c.007-.018.789-1.916,4.372-.867l.049.013a3.5,3.5,0,0,0,3.086-.7c.836-.837.987-2.185.452-4.007-.006-.019-.012-.038-.019-.056a7.733,7.733,0,0,0-.6-1.2,29.049,29.049,0,0,0,4.343.208,3.179,3.179,0,0,0,2.822-.639c.627-.679.69-1.681.186-2.979a.393.393,0,0,0-.021-.052c-.054-.165-.506-1.922,3-4.2a16.286,16.286,0,0,0,7.492,1.787,5.359,5.359,0,0,0,.556.028,3.674,3.674,0,0,0,2.745-1.085c1.9-1.965.861-4.3.8-5.994-.606-17.136,5.424-21.088,5.459-21.11a.869.869,0,0,0,.128-.084c13.54-10.63,14.29-19.163,14.291-20.89a15.794,15.794,0,0,0,1.813-12.27h0c0-.008-.006-.014-.007-.021-.01-.039-.016-.078-.027-.117a.861.861,0,0,0-.083-.206c0-.009-.011-.017-.016-.026a.923.923,0,0,0-.067-.1c-.591-.947-2.218-1.206-3.3-1.268-.037,0-.074-.011-.112-.011h-.131c-.459-.016-.775,0-.775,0h-83.1a2.774,2.774,0,0,0-2.821,2.725v4.39a2.774,2.774,0,0,0,2.821,2.724h85.627c-4.012,13.056-27.015,19.225-37.786,22.113l-.921.247c-17.11,4.605-24.4,8.636-31.521,13.052-12.806,7.941-20.265,16.786-22.173,26.289a23.12,23.12,0,0,0,3,16.964h0a1.376,1.376,0,0,0,.172.249l.014.02c.018.023.039.04.058.061s.036.039.056.059.034.037.053.052a4.738,4.738,0,0,0,3.6,1.043H247.35a2.773,2.773,0,0,0,2.82-2.724V370.6A2.773,2.773,0,0,0,247.35,367.874Zm-88.922-8.3c1.819-8.982,9-17.414,21.335-25.065,6.992-4.336,14.152-8.294,31.01-12.831l.918-.247c6.513-1.746,17.416-4.669,26.155-9.626a35.666,35.666,0,0,0,8.778-6.7c-1.137,3.5-4.276,9.31-12.915,16.1-1.845,1.975-6.324,5.135-6.322,22.716,0,.056.012.111.016.168.1,1.2.831,3.325-.311,4.5a2,2,0,0,1-1.772.486.866.866,0,0,0-.13-.007c-.049,0-4.779.072-7.477-2.165l-.019-.015a5.005,5.005,0,0,0-.789-.486.922.922,0,0,0-.857-.237,1.018,1.018,0,0,0-.664,1.1,1.311,1.311,0,0,0,.165.338.8.8,0,0,0,.134.223c.007.016.014.031.02.048l.032.012a.892.892,0,0,0,.224.158c-4.02,2.912-3.209,5.5-3.029,5.944.292.754.22,1.076.171,1.129a1.709,1.709,0,0,1-1.12.052.969.969,0,0,0-.3-.024,38.912,38.912,0,0,1-6.478-.5.949.949,0,0,0-1.019.544.888.888,0,0,0,.307,1.083,5.625,5.625,0,0,1,1.663,2.276c.314,1.087.313,1.892,0,2.214a1.624,1.624,0,0,1-1.271.2c-4.178-1.209-6.174.764-6.642,1.972a2.674,2.674,0,0,1-1.618,1.663c-1.734.61-4.312-.43-5.152-.878-13.655-7.474-19.085-16.228-19.163-16.355a.959.959,0,0,0-1.285-.328.891.891,0,0,0-.34,1.241,30.64,30.64,0,0,0,3.2,4.137c-13.1,9.248-14.266,16.564-14.312,18.581h0a2.836,2.836,0,0,0,.015.523l0,.022v0a6.513,6.513,0,0,0,.3,1.333A21.933,21.933,0,0,1,158.427,359.57Z"/></g></svg>